# xmcd CD database file
#
# Track frame offsets:
#	150
#	18198
#	40511
#	65071
#	80172
#	102739
#	115539
#	139216
#	160088
#	176686
#
# Disc length: 2660 seconds
#
# Revision: 0
# Processed by: cddbd v1.5.1PL2 Copyright (c) Steve Scherf et al.
# Submitted via: CDex 1.51
#
DISCID=810a620a
DTITLE=Senti Toy - How Many Stories Do You Read on My Face?
DYEAR=2006
DGENRE=Jazz
TTITLE0=How Many Stories Do You Read on My Face?
TTITLE1=Say a Word
TTITLE2=More Than the Fingers of My Hands
TTITLE3=The Language I Cry In
TTITLE4=And Then? and Then?
TTITLE5=Because I am Woman
TTITLE6=You Got Breath
TTITLE7=When I Dance
TTITLE8=Kohima
TTITLE9=Berimbau
EXTD=YEAR: 2006
EXTT0=
EXTT1=
EXTT2=
EXTT3=
EXTT4=
EXTT5=
EXTT6=
EXTT7=
EXTT8=
EXTT9=
PLAYORDER=
